<?xml version="1.0" encoding="UTF-8"?>
<svg width="63px" height="63px" viewBox="0 0 63 63" version="1.1" xmlns="http://www.w3.org/2000/svg" xmlns:xlink="http://www.w3.org/1999/xlink">
    <!-- Generator: Sketch 62 (91390) - https://sketch.com -->
    <title>124032</title>
    <desc>Created with Sketch.</desc>
    <g id="ARIoT---web" stroke="none" stroke-width="1" fill="none" fill-rule="evenodd">
        <g id="Past-events-" transform="translate(-1045.000000, -1763.000000)" fill="#4BC1DA" fill-rule="nonzero">
            <g id="Group-5" transform="translate(-1.000000, 1436.000000)">
                <g id="Stacked-Group-5" transform="translate(1046.000000, 327.000000)">
                    <g id="124032">
                        <path d="M31.4993088,25.2356659 C28.0460799,25.2356659 25.2342835,28.0460799 25.2342835,31.4993088 C25.2342835,34.9539201 28.0460799,37.7657165 31.4993088,37.7657165 C34.9539201,37.7657165 37.7643341,34.9539201 37.7643341,31.4993088 C37.7643341,28.0460799 34.9539201,25.2356659 31.4993088,25.2356659 Z M31.4993088,25.2356659 C28.0460799,25.2356659 25.2342835,28.0460799 25.2342835,31.4993088 C25.2342835,34.9539201 28.0460799,37.7657165 31.4993088,37.7657165 C34.9539201,37.7657165 37.7643341,34.9539201 37.7643341,31.4993088 C37.7643341,28.0460799 34.9539201,25.2356659 31.4993088,25.2356659 Z M41.9364097,15.0211309 L21.0635903,15.0211309 C17.7320124,15.0211309 15.0211309,17.7320124 15.0211309,21.0635903 L15.0211309,41.9364097 C15.0211309,45.2679876 17.7320124,47.9788691 21.0635903,47.9788691 L41.9364097,47.9788691 C45.2679876,47.9788691 47.9788691,45.2679876 47.9788691,41.9364097 L47.9788691,21.0635903 C47.9788691,17.7320124 45.2679876,15.0211309 41.9364097,15.0211309 Z M31.4993088,42.3497466 C25.5176749,42.3497466 20.6502534,37.4823251 20.6502534,31.4993088 C20.6502534,25.5176749 25.5176749,20.6502534 31.4993088,20.6502534 C37.4823251,20.6502534 42.3497466,25.5176749 42.3497466,31.4993088 C42.3497466,37.4823251 37.4823251,42.3497466 31.4993088,42.3497466 Z M42.6981107,22.8938845 C41.2825357,22.8938845 40.1309986,21.7423474 40.1309986,20.3267724 C40.1309986,18.9111974 41.2825357,17.7596603 42.6981107,17.7596603 C44.1136857,17.7596603 45.2652228,18.9111974 45.2652228,20.3267724 C45.2652228,21.7423474 44.1136857,22.8938845 42.6981107,22.8938845 Z M31.4993088,25.2356659 C28.0460799,25.2356659 25.2342835,28.0460799 25.2342835,31.4993088 C25.2342835,34.9539201 28.0460799,37.7657165 31.4993088,37.7657165 C34.9539201,37.7657165 37.7643341,34.9539201 37.7643341,31.4993088 C37.7643341,28.0460799 34.9539201,25.2356659 31.4993088,25.2356659 Z M41.9364097,15.0211309 L21.0635903,15.0211309 C17.7320124,15.0211309 15.0211309,17.7320124 15.0211309,21.0635903 L15.0211309,41.9364097 C15.0211309,45.2679876 17.7320124,47.9788691 21.0635903,47.9788691 L41.9364097,47.9788691 C45.2679876,47.9788691 47.9788691,45.2679876 47.9788691,41.9364097 L47.9788691,21.0635903 C47.9788691,17.7320124 45.2679876,15.0211309 41.9364097,15.0211309 Z M31.4993088,42.3497466 C25.5176749,42.3497466 20.6502534,37.4823251 20.6502534,31.4993088 C20.6502534,25.5176749 25.5176749,20.6502534 31.4993088,20.6502534 C37.4823251,20.6502534 42.3497466,25.5176749 42.3497466,31.4993088 C42.3497466,37.4823251 37.4823251,42.3497466 31.4993088,42.3497466 Z M42.6981107,22.8938845 C41.2825357,22.8938845 40.1309986,21.7423474 40.1309986,20.3267724 C40.1309986,18.9111974 41.2825357,17.7596603 42.6981107,17.7596603 C44.1136857,17.7596603 45.2652228,18.9111974 45.2652228,20.3267724 C45.2652228,21.7423474 44.1136857,22.8938845 42.6981107,22.8938845 Z M31.4993088,25.2356659 C28.0460799,25.2356659 25.2342835,28.0460799 25.2342835,31.4993088 C25.2342835,34.9539201 28.0460799,37.7657165 31.4993088,37.7657165 C34.9539201,37.7657165 37.7643341,34.9539201 37.7643341,31.4993088 C37.7643341,28.0460799 34.9539201,25.2356659 31.4993088,25.2356659 Z M0,0 L0,63 L63,63 L63,0 L0,0 Z M52.5628991,41.9364097 C52.5628991,47.7963926 47.7963926,52.5628991 41.9364097,52.5628991 L21.0635903,52.5628991 C15.2036074,52.5628991 10.4371009,47.7963926 10.4371009,41.9364097 L10.4371009,21.0635903 C10.4371009,15.2036074 15.2036074,10.4371009 21.0635903,10.4371009 L41.9364097,10.4371009 C47.7963926,10.4371009 52.5628991,15.2036074 52.5628991,21.0635903 L52.5628991,41.9364097 Z M41.9364097,15.0211309 L21.0635903,15.0211309 C17.7320124,15.0211309 15.0211309,17.7320124 15.0211309,21.0635903 L15.0211309,41.9364097 C15.0211309,45.2679876 17.7320124,47.9788691 21.0635903,47.9788691 L41.9364097,47.9788691 C45.2679876,47.9788691 47.9788691,45.2679876 47.9788691,41.9364097 L47.9788691,21.0635903 C47.9788691,17.7320124 45.2679876,15.0211309 41.9364097,15.0211309 Z M31.4993088,42.3497466 C25.5176749,42.3497466 20.6502534,37.4823251 20.6502534,31.4993088 C20.6502534,25.5176749 25.5176749,20.6502534 31.4993088,20.6502534 C37.4823251,20.6502534 42.3497466,25.5176749 42.3497466,31.4993088 C42.3497466,37.4823251 37.4823251,42.3497466 31.4993088,42.3497466 Z M42.6981107,22.8938845 C41.2825357,22.8938845 40.1309986,21.7423474 40.1309986,20.3267724 C40.1309986,18.9111974 41.2825357,17.7596603 42.6981107,17.7596603 C44.1136857,17.7596603 45.2652228,18.9111974 45.2652228,20.3267724 C45.2652228,21.7423474 44.1136857,22.8938845 42.6981107,22.8938845 Z M31.4993088,25.2356659 C28.0460799,25.2356659 25.2342835,28.0460799 25.2342835,31.4993088 C25.2342835,34.9539201 28.0460799,37.7657165 31.4993088,37.7657165 C34.9539201,37.7657165 37.7643341,34.9539201 37.7643341,31.4993088 C37.7643341,28.0460799 34.9539201,25.2356659 31.4993088,25.2356659 Z M31.4993088,25.2356659 C28.0460799,25.2356659 25.2342835,28.0460799 25.2342835,31.4993088 C25.2342835,34.9539201 28.0460799,37.7657165 31.4993088,37.7657165 C34.9539201,37.7657165 37.7643341,34.9539201 37.7643341,31.4993088 C37.7643341,28.0460799 34.9539201,25.2356659 31.4993088,25.2356659 Z M31.4993088,25.2356659 C28.0460799,25.2356659 25.2342835,28.0460799 25.2342835,31.4993088 C25.2342835,34.9539201 28.0460799,37.7657165 31.4993088,37.7657165 C34.9539201,37.7657165 37.7643341,34.9539201 37.7643341,31.4993088 C37.7643341,28.0460799 34.9539201,25.2356659 31.4993088,25.2356659 Z M41.9364097,15.0211309 L21.0635903,15.0211309 C17.7320124,15.0211309 15.0211309,17.7320124 15.0211309,21.0635903 L15.0211309,41.9364097 C15.0211309,45.2679876 17.7320124,47.9788691 21.0635903,47.9788691 L41.9364097,47.9788691 C45.2679876,47.9788691 47.9788691,45.2679876 47.9788691,41.9364097 L47.9788691,21.0635903 C47.9788691,17.7320124 45.2679876,15.0211309 41.9364097,15.0211309 Z M31.4993088,42.3497466 C25.5176749,42.3497466 20.6502534,37.4823251 20.6502534,31.4993088 C20.6502534,25.5176749 25.5176749,20.6502534 31.4993088,20.6502534 C37.4823251,20.6502534 42.3497466,25.5176749 42.3497466,31.4993088 C42.3497466,37.4823251 37.4823251,42.3497466 31.4993088,42.3497466 Z M42.6981107,22.8938845 C41.2825357,22.8938845 40.1309986,21.7423474 40.1309986,20.3267724 C40.1309986,18.9111974 41.2825357,17.7596603 42.6981107,17.7596603 C44.1136857,17.7596603 45.2652228,18.9111974 45.2652228,20.3267724 C45.2652228,21.7423474 44.1136857,22.8938845 42.6981107,22.8938845 Z M31.4993088,25.2356659 C28.0460799,25.2356659 25.2342835,28.0460799 25.2342835,31.4993088 C25.2342835,34.9539201 28.0460799,37.7657165 31.4993088,37.7657165 C34.9539201,37.7657165 37.7643341,34.9539201 37.7643341,31.4993088 C37.7643341,28.0460799 34.9539201,25.2356659 31.4993088,25.2356659 Z M31.4993088,25.2356659 C28.0460799,25.2356659 25.2342835,28.0460799 25.2342835,31.4993088 C25.2342835,34.9539201 28.0460799,37.7657165 31.4993088,37.7657165 C34.9539201,37.7657165 37.7643341,34.9539201 37.7643341,31.4993088 C37.7643341,28.0460799 34.9539201,25.2356659 31.4993088,25.2356659 Z M31.4993088,25.2356659 C28.0460799,25.2356659 25.2342835,28.0460799 25.2342835,31.4993088 C25.2342835,34.9539201 28.0460799,37.7657165 31.4993088,37.7657165 C34.9539201,37.7657165 37.7643341,34.9539201 37.7643341,31.4993088 C37.7643341,28.0460799 34.9539201,25.2356659 31.4993088,25.2356659 Z M41.9364097,15.0211309 L21.0635903,15.0211309 C17.7320124,15.0211309 15.0211309,17.7320124 15.0211309,21.0635903 L15.0211309,41.9364097 C15.0211309,45.2679876 17.7320124,47.9788691 21.0635903,47.9788691 L41.9364097,47.9788691 C45.2679876,47.9788691 47.9788691,45.2679876 47.9788691,41.9364097 L47.9788691,21.0635903 C47.9788691,17.7320124 45.2679876,15.0211309 41.9364097,15.0211309 Z M31.4993088,42.3497466 C25.5176749,42.3497466 20.6502534,37.4823251 20.6502534,31.4993088 C20.6502534,25.5176749 25.5176749,20.6502534 31.4993088,20.6502534 C37.4823251,20.6502534 42.3497466,25.5176749 42.3497466,31.4993088 C42.3497466,37.4823251 37.4823251,42.3497466 31.4993088,42.3497466 Z M42.6981107,22.8938845 C41.2825357,22.8938845 40.1309986,21.7423474 40.1309986,20.3267724 C40.1309986,18.9111974 41.2825357,17.7596603 42.6981107,17.7596603 C44.1136857,17.7596603 45.2652228,18.9111974 45.2652228,20.3267724 C45.2652228,21.7423474 44.1136857,22.8938845 42.6981107,22.8938845 Z M31.4993088,25.2356659 C28.0460799,25.2356659 25.2342835,28.0460799 25.2342835,31.4993088 C25.2342835,34.9539201 28.0460799,37.7657165 31.4993088,37.7657165 C34.9539201,37.7657165 37.7643341,34.9539201 37.7643341,31.4993088 C37.7643341,28.0460799 34.9539201,25.2356659 31.4993088,25.2356659 Z" id="Shape"></path>
                    </g>
                </g>
            </g>
        </g>
    </g>
</svg>