<?xml version="1.0" encoding="UTF-8"?>
<svg width="63px" height="63px" viewBox="0 0 63 63" version="1.1" xmlns="http://www.w3.org/2000/svg" xmlns:xlink="http://www.w3.org/1999/xlink">
    <!-- Generator: Sketch 62 (91390) - https://sketch.com -->
    <title>124021</title>
    <desc>Created with Sketch.</desc>
    <g id="ARIoT---web" stroke="none" stroke-width="1" fill="none" fill-rule="evenodd">
        <g id="Past-events-" transform="translate(-1158.000000, -1763.000000)" fill="#4BC1DA" fill-rule="nonzero">
            <g id="Group-5" transform="translate(-1.000000, 1436.000000)">
                <g id="Stacked-Group-5" transform="translate(1046.000000, 327.000000)">
                    <g id="124021" transform="translate(113.000000, 0.000000)">
                        <path d="M63,0 L63,63 L0,63 L0,0 L63,0 Z M39.8890365,14 C34.66759,14 30.4365528,18.1880918 30.4365528,23.3541075 C30.4365528,24.0830979 30.5212724,24.7926467 30.681512,25.4739169 C29.9518523,25.4442787 18.8404023,24.8274511 11.2812714,15.7636074 C11.2812714,15.7636074 6.76353314,21.8702953 13.9734874,28.1497819 C13.9734874,28.1497819 11.7817624,28.0633146 9.89088119,26.9446774 C9.89088119,26.9446774 9.19637266,34.3428012 17.3614478,36.2343422 C17.3614478,36.2343422 15.7547961,36.8368945 13.1916504,36.4072769 C13.1916504,36.4072769 14.6250183,42.3849435 21.8793234,42.9435824 C21.8793234,42.9435824 16.1429684,48.0745217 8,46.8706407 L8.00260887,46.8713205 C12.1671885,49.4865496 17.107289,51 22.4028823,51 C37.2801669,51 49.340147,39.0575824 49.340147,24.3283606 C49.340147,23.9606025 49.3323204,23.5955635 49.3180403,23.2316121 C49.856154,22.8123271 53.1842477,20.1711305 54,18.4731893 C54,18.4731893 51.2973484,19.5853007 48.6522293,19.8472859 C48.6470116,19.8472859 48.6405581,19.8485095 48.6353403,19.8485095 C48.6353403,19.8485095 48.6405581,19.8459263 48.6496205,19.8395364 C48.8933438,19.6782939 52.3008021,17.3816071 52.76216,14.6451062 C52.76216,14.6451062 50.8505452,15.6553873 48.1739823,16.5392303 C47.7308864,16.684974 47.2670569,16.8282705 46.7888099,16.9610985 C45.0635233,15.1379428 42.6111859,14 39.8890365,14 Z" id="Combined-Shape"></path>
                    </g>
                </g>
            </g>
        </g>
    </g>
</svg>