<?xml version="1.0" encoding="utf-8"?>
<!-- Generator: Adobe Illustrator 16.0.4, SVG Export Plug-In . SVG Version: 6.00 Build 0)  -->
<!DOCTYPE svg PUBLIC "-//W3C//DTD SVG 1.1//EN" "http://www.w3.org/Graphics/SVG/1.1/DTD/svg11.dtd">
<svg version="1.1" id="Layer_1" xmlns="http://www.w3.org/2000/svg" xmlns:xlink="http://www.w3.org/1999/xlink" x="0px" y="0px"
	 width="395.115px" height="198.307px" viewBox="703.604 241.45 395.115 198.307"
	 enable-background="new 703.604 241.45 395.115 198.307" xml:space="preserve">
<path fill="#ffffff" d="M1096.25,343.625c-2.875-0.5-4.5,3.625-11.375,10.25c-4.062,4.396-9.002,7.888-14.5,10.25
	c-9.625,4.125-11.375-1.375-10.375-9.375c1-8.375,4.625-19.25,5.875-25c0.582-2.526,0.132-5.181-1.25-7.375
	c-2-3-6.625-4.625-9.125-1.75c-3.625,4.25-5.125,7.375-16.625,21.75c-10.125,12.75-23.25,23.25-30.625,17.5
	c-4-3.125-4.5-9.375,0-18.125c4.875-9.5,16-20.375,26-27.625c13-9.5,20.25-11,21.625-11.375c1.75-0.5,3.125-0.5,3.75,0.25
	c1.5,1.75-2.375,4-1.125,8.125c0.888,2.391,3.082,4.049,5.625,4.25c2.5,0.25,8.625-1.375,9.875-9.25s-6-21.875-39.625-9
	C1008.75,307,982.625,332,978.125,352.25c-5,3.25-11.25,5.875-17.625,5.5c-11.875-0.875-10.875-15.375-5-26.5s16.375-19,19.625-22
	c4.5-4.125,8.875-4.75,6.25-12c-1.875-5.125-4.75-5.375-9.625-4c-11.168,3.191-22.583,5.449-34.125,6.75
	c-0.25-5.625-3.75-11-11.25-11c-7.75,0-15.75,7.25-17.125,16.25c-1.5,9.75,3.25,14.75,7.5,16.625c-8.875,16.375-27.75,36.625-46,38
	c-5.125,0.375-9.875-1.375-12.25-4.25c12.25-7,24.25-16.375,31-30.375c8.875-18.5,0-29.375-12.875-29.375
	c-14.5,0-40.875,14.625-48.875,39.875c-2.343,7.545-2.559,15.59-0.625,23.25c-7.54,2.739-15.479,4.218-23.5,4.375
	c-11.375,0-11.625-8.75-8.875-14.75c2-4.125,17.625-37.625,28.375-60.5c34.625-6.125,81.125-14.25,89.625-15.875
	c5.125-1,11.375-1.25,11-5.625c-0.25-3.375-4.5-3.25-7.875-3.125l-83.125,4.25c8.875-21.5-11.875-29.75-15.375-25
	c-1.375,1.875-6.875,12.875-13.5,26.5l-15.25,0.75c-6.75,0.5-17.875,1.625-19.5,12.75c-1.25,8.625,7.75,13.75,17.875,11.875
	c1.375-0.25,3-0.625,5.125-0.875c-7.25,15-13.625,28.625-15.625,33.125c-5,10.875-10.125,20.625-11.25,29.875
	c-7.375,4.375-15.375,7.625-22.25,7.25c-11.375-0.375-11.125-9.375-8.625-14.75c1.75-3.75,4.75-10.5,8.625-18.875
	c5.25-11.25,0.25-20-8-22.875c-5.625-2-10.75-2.125-12.875-0.125c-2.875,2.5-0.75,9-3.125,14.125c-5.125,10.5-9,19.5-11.625,25.125
	c-5.625,12-4.75,22.375,1.25,29c4.25,4.75,11.375,7.75,20.875,7.75c11.375,0,25.5-6.375,37.25-14
	c0.408,0.941,0.867,1.859,1.375,2.75c3.625,6.375,11.375,10.75,22,10.75c11.75,0,28.625-5.75,41.75-13.25
	c4.875,6.625,12.75,11.375,24.75,11.5c34.75,0.5,62.125-32.5,73-58.625c9.625-1.375,21.5-6.125,21.5-6.125s-30.875,28.375-24,50.75
	c2.75,8.875,12,16.25,25.125,15c10.625-1,19.75-7,26.875-13.75c4.75,11.75,16.875,13.5,25,12.375c20.25-2.875,33.75-23,33.75-23
	s-2.125,7.75,0.75,14.375c2,4.875,6.875,9.375,16,9.375c20.5,0,36.75-21,40-26.125C1100.5,346.875,1099.125,344,1096.25,343.625
	 M852.125,346c-0.5-1.125-2.875-10.375,4.25-22.125c6-9.875,16.375-15.75,20.5-12.25c2.875,2.375-0.25,10.625-9.25,21
	C863.251,337.928,858.011,342.449,852.125,346"/>
<path fill="#ffffff" d="M741,298.75c8.5,0,17-6.625,18.875-14.875S756.375,269,747.75,269s-17,6.625-18.875,14.875
	S732.5,298.75,741,298.75"/>
<path fill="#ffffff" d="M719.25,434.375h-2.375l-10.75-23.125l0.125,28h-2.875V407.5h3.875L718,430.875l10.75-23.375h3.875v31.75
	h-2.875l0.25-28L719.25,434.375z"/>
<path fill="#ffffff" d="M736.875,439.25l11.25-32.125h2.125l11.25,32.125h-3.25l-2.875-8.875h-12.25l-2.875,8.875H736.875z
	 M743.875,427.875h10.5l-5.25-16L743.875,427.875z"/>
<path fill="#ffffff" d="M771.25,423.875L768.5,427v12.25h-2.875V407.5h2.875v15.875l13.25-15.875h3.75l-12.375,14.25l13.625,17.5
	H783L771.25,423.875z"/>
<path fill="#ffffff" d="M807.75,424h-14v12.5h15.5v2.625h-18.375V407.5h18.375v2.625h-15.5v11.25h14V424z"/>
<path fill="#ffffff" d="M820,439.25l11.25-32.125h2.125l11.25,32.125h-3.25l-2.875-8.875h-12.25l-2.875,8.875H820z M827,427.875
	h10.5l-5.25-16L827,427.875z"/>
<path fill="#ffffff" d="M856,439.25V407.5h8.625C875,407.5,878,414.375,878,423.375s-3,15.875-13.375,15.875H856L856,439.25z
	 M858.875,436.5h5.875c7.625,0,10.125-5.625,10.125-13.25S872.375,410,864.75,410h-5.875V436.5z"/>
<path fill="#ffffff" d="M884.625,439.25V407.5h3v31.75H884.625z"/>
<path fill="#ffffff" d="M911.25,424h-13.625v15.25h-2.875V407.5h18v2.625h-15.125v11.25h13.625V424z"/>
<path fill="#ffffff" d="M934.5,424h-13.625v15.25H918V407.5h18v2.625h-15.125v11.25H934.5V424z"/>
<path fill="#ffffff" d="M958.25,424h-14v12.5h15.5v2.625h-18.375V407.5h18.375v2.625h-15.5v11.25h14V424z"/>
<path fill="#ffffff" d="M968.375,439.25H965.5V407.5h10c7.875,0,10.375,3.5,10.375,8.875c0,4.25-1.5,7.25-5.875,8.375l7.625,14.375
	h-3.375l-7.125-13.875h-8.75V439.25L968.375,439.25z M968.375,422.625h7.875c5.625,0,6.5-2.875,6.5-6.25s-0.875-6.25-6.5-6.25
	h-7.875V422.625z"/>
<path fill="#ffffff" d="M1008.625,424h-14v12.5h15.5v2.625H991.75V407.5h18.375v2.625h-15.5v11.25h14V424z"/>
<path fill="#ffffff" d="M1035.75,439.25l-17-25.875l0.125,25.875H1016V407.5h2.125l17,25.875L1035,407.5h2.875v31.75H1035.75z"/>
<path fill="#ffffff" d="M1056.125,407c2.824-0.072,5.633,0.438,8.25,1.5v2.875c-2.609-1.102-5.418-1.654-8.25-1.625
	c-7,0-9.5,6-9.5,13.625s2.5,13.625,9.5,13.625c2.832,0.029,5.641-0.523,8.25-1.625v2.875c-2.617,1.062-5.426,1.572-8.25,1.5
	c-9.5,0-12.5-7.25-12.5-16.25S1046.625,407,1056.125,407z"/>
<path fill="#ffffff" d="M1087,424h-14v12.5h15.5v2.625H1070V407.5h18.375v2.625h-15.5v11.25h14V424H1087z"/>
</svg>
