<svg xmlns="http://www.w3.org/2000/svg" viewBox="0 0 142.4 121.7"><defs><style>.cls-1,.cls-2,.cls-3,.cls-4{fill:#00a9ce;}.cls-1{opacity:0.6;}.cls-1,.cls-2,.cls-3{isolation:isolate;}.cls-2{opacity:0.8;}.cls-3{opacity:0.5;}</style></defs><g id="Layer_1" data-name="Layer 1"><path class="cls-1" d="M82.9.4a.1.1,0,0,0-.1.1c-.2.1-.3.2-.5.2L66.8,9.6,84.8,20V0A6.46,6.46,0,0,0,82.9.4Z"/><path class="cls-2" d="M51.2,63.1l16.4-9.5-18-10.4V63.5A2.54,2.54,0,0,0,51.2,63.1Z"/><path class="cls-3" d="M103.2,52.5,66.3,31.2h0l-1.7-1L31.3,10.9a5.85,5.85,0,0,0-.4,1.9V51.4a3.45,3.45,0,0,0,1.7,2.9l15.2,8.9a3.29,3.29,0,0,0,1.7.4V43.3L84,63.2a.37.37,0,0,0,.3.1h.1a2.7,2.7,0,0,0,2.7-.5l5.8-3.3,9.2-5.5A2.83,2.83,0,0,0,103.2,52.5Z"/><path class="cls-4" d="M103.4,27.3V12.8a5.13,5.13,0,0,0-2.6-4.5L87.4.6A5.83,5.83,0,0,0,84.8,0V20.1L54.7,2.6,51.3.7A4.4,4.4,0,0,0,47,.5a.1.1,0,0,0-.1.1c-.2.1-.3.2-.5.3L41.1,4,33.5,8.4h0A5.82,5.82,0,0,0,31.2,11L64.5,30.2l1.7,1h0l36.9,21.3a9,9,0,0,0,.2-1.9V27.3Z"/><path d="M28.4,121.5H26.7l-.9-5.8h0l-1.7,4.5H23l-1.7-4.5h0l-.9,5.8H18.7l1.6-9h1.2l2,5.1h0l2-5.1h1.2Z"/><path d="M21,106.1H16.9L5,89.5H5v16.7H.6V81.9H4.7L16.5,98.6h0V81.9h4.4Z"/><path d="M50.8,94a12.29,12.29,0,0,1-12.7,12.7c-7.2,0-12.7-5.1-12.7-12.7A12.29,12.29,0,0,1,38.1,81.3,12.29,12.29,0,0,1,50.8,94ZM30.3,94c0,4.8,3.3,8.1,7.8,8.1s7.8-3.3,7.8-8.1-3.3-8.1-7.8-8.1S30.3,89.2,30.3,94Z"/><path d="M61.7,96.4H60v9.7H55.6V81.8h8.9c4.8,0,7.8,3,7.8,7.4a6.74,6.74,0,0,1-5.7,7l7.2,9.9H68.2Zm-1.6-3.9h3.8c2.6,0,3.8-1.2,3.8-3.3s-1.2-3.3-3.8-3.3H60.1Z"/><path d="M98.1,94c0,7.6-5.3,12.1-12.6,12.1H77.7V81.8h7.8C92.8,81.8,98.1,86.4,98.1,94ZM82.2,85.9V102h3.5c4.4,0,7.6-2.8,7.6-8s-3.3-8-7.6-8Z"/><path d="M107.3,106.1h-4.5V81.8h4.5Z"/><path d="M112.1,94c0-7.7,5.4-12.7,13.1-12.7a14.31,14.31,0,0,1,8.7,2.7l-2.6,3.9a10.79,10.79,0,0,0-6.1-2A7.8,7.8,0,0,0,117,94c0,5,3.5,8.1,8.2,8.1a10.79,10.79,0,0,0,6.1-2l2.6,3.9a14.75,14.75,0,0,1-8.7,2.7C117.6,106.6,112.1,101.6,112.1,94Z"/><path d="M0,120.8l.7-1.5a5.27,5.27,0,0,0,2.4.8c.8,0,1.3-.4,1.3-.9s-.3-.8-.9-1.2L2,117a2.72,2.72,0,0,1-1.4-2.4c0-1.4,1-2.3,2.7-2.3a5.83,5.83,0,0,1,2.6.6l-.7,1.5a5.19,5.19,0,0,0-1.9-.6c-.7,0-.9.3-.9.7s.2.6.7.9l1.6,1.1A2.86,2.86,0,0,1,6.2,119c0,1.7-1.2,2.6-3.1,2.6a4.53,4.53,0,0,1-3.1-.8"/><path d="M15.2,120v1.5H9.8v-9h5.3V114H11.4v1.8h3.4v1.5H11.4v2.6h3.8Z"/><path d="M33.7,121.5H32v-9h1.7Z"/><path d="M33.7,121.5H32v-9h1.7Z"/><path d="M37.1,117a4.57,4.57,0,0,1,4.9-4.7,5.09,5.09,0,0,1,3.2,1l-.9,1.4A3.93,3.93,0,0,0,42,114a3,3,0,0,0,0,6,4.81,4.81,0,0,0,2.3-.7l.9,1.4a5.09,5.09,0,0,1-3.2,1C39.1,121.7,37.1,119.9,37.1,117Z"/><path d="M57.3,117a4.7,4.7,0,1,1-4.7-4.7A4.57,4.57,0,0,1,57.3,117Zm-7.6,0a2.9,2.9,0,1,0,2.9-3A2.81,2.81,0,0,0,49.7,117Z"/><path d="M68.3,121.5H66.8l-4.4-6.2h0v6.2H60.8v-9h1.5l4.4,6.2h0v-6.2h1.6Z"/><path d="M79.9,117a4.36,4.36,0,0,1-4.7,4.5H72.3v-9h2.9A4.36,4.36,0,0,1,79.9,117ZM74,114v6h1.3a2.68,2.68,0,0,0,2.8-3,2.73,2.73,0,0,0-2.8-3Z"/><path d="M90.7,117.9a3.37,3.37,0,0,1-3.7,3.7,3.42,3.42,0,0,1-3.7-3.7v-5.4H85v5.3a2,2,0,1,0,4,0v-5.3h1.7Z"/><path d="M94.1,117a4.57,4.57,0,0,1,4.9-4.7,5.09,5.09,0,0,1,3.2,1l-.9,1.4A3.93,3.93,0,0,0,99,114a3,3,0,0,0,0,6,4.81,4.81,0,0,0,2.3-.7l.9,1.4a5.09,5.09,0,0,1-3.2,1A4.62,4.62,0,0,1,94.1,117Z"/><path d="M111.4,114H109v7.4h-1.6V114h-2.5v-1.5h6.5Z"/><path d="M123.4,117a4.7,4.7,0,1,1-4.7-4.7A4.57,4.57,0,0,1,123.4,117Zm-7.6,0a2.9,2.9,0,1,0,2.9-3A2.81,2.81,0,0,0,115.8,117Z"/><path d="M129,117.9h-.6v3.6h-1.6v-9h3.3a2.63,2.63,0,0,1,2.9,2.7,2.58,2.58,0,0,1-2.1,2.6l2.7,3.7h-2.1Zm-.6-1.4h1.4c.9,0,1.4-.4,1.4-1.2s-.4-1.2-1.4-1.2h-1.4Z"/><path d="M138.9,84.8v1.3h-.2V83.3h1.2c.5,0,.9.2.9.7a.64.64,0,0,1-.5.7.68.68,0,0,1,.5.7v.7h-.3v-.7c0-.5-.2-.6-.7-.6Zm0-.2h.9c.5,0,.7-.2.7-.6s-.3-.5-.7-.5h-.9Z"/><path d="M140.9,86.2h-.4v-.8c0-.4-.1-.5-.7-.5H139v1.3h-.4v-3h1.3c.6,0,1,.3,1,.8a.75.75,0,0,1-.4.7.78.78,0,0,1,.3.7v.1a1.7,1.7,0,0,0,.1.7Zm-.3-.2h.1v-.6c0-.5-.2-.6-.4-.6l-.3-.1.3-.1a.63.63,0,0,0,.5-.6c0-.6-.6-.7-.9-.7h-1.2V86h.1V84.7h1c.5,0,.8.1.8.7V86Zm-.8-1.3h-1V83.5h1c.7,0,.8.3.8.6S140.3,84.7,139.8,84.7Zm-.8-.2h.8c.6,0,.7-.3.7-.5s0-.4-.7-.4H139Z"/><path d="M139.7,87.3a2.7,2.7,0,1,1,2.7-2.7A2.82,2.82,0,0,1,139.7,87.3Zm0-5a2.4,2.4,0,1,0,2.4,2.4A2.37,2.37,0,0,0,139.7,82.3Z"/><path d="M139.7,87.4a2.7,2.7,0,1,1,2.7-2.7A2.69,2.69,0,0,1,139.7,87.4Zm0-5.3a2.6,2.6,0,1,0,2.6,2.6A2.65,2.65,0,0,0,139.7,82.1Zm0,5a2.5,2.5,0,1,1,2.5-2.5A2.54,2.54,0,0,1,139.7,87.1Zm0-4.8a2.3,2.3,0,1,0,2.3,2.3A2.26,2.26,0,0,0,139.7,82.3Z"/></g></svg>